<?xml version="1.0" standalone="no"?>
<!DOCTYPE svg PUBLIC "-//W3C//DTD SVG 20010904//EN"
 "http://www.w3.org/TR/2001/REC-SVG-20010904/DTD/svg10.dtd">
<svg version="1.0" xmlns="http://www.w3.org/2000/svg"
 width="512.000000pt" height="512.000000pt" viewBox="0 0 512.000000 512.000000"
 preserveAspectRatio="xMidYMid meet">
<metadata>
Created by potrace 1.14, written by Peter Selinger 2001-2017
</metadata>
<g transform="translate(0.000000,512.000000) scale(0.100000,-0.100000)"
fill="#000000" stroke="none">
<path d="M4533 5069 c-24 -12 -43 -24 -43 -28 0 -7 -63 -109 -80 -128 -5 -7
-10 -17 -10 -23 0 -5 -4 -10 -10 -10 -5 0 -10 -5 -10 -11 0 -6 -13 -30 -30
-53 -27 -40 -38 -47 -142 -84 -127 -45 -327 -103 -326 -93 2 21 -6 35 -38 66
-61 60 -104 62 -250 14 -65 -22 -123 -41 -129 -43 -11 -3 -31 -11 -80 -29 -16
-7 -32 -12 -35 -13 -3 0 -18 -6 -35 -13 -16 -6 -50 -19 -75 -29 -25 -9 -56
-22 -69 -29 -14 -6 -28 -10 -33 -7 -4 3 -8 0 -8 -5 0 -6 -9 -11 -20 -11 -11 0
-20 -5 -20 -12 0 -6 -3 -8 -6 -5 -4 4 -19 0 -33 -7 -14 -8 -60 -29 -101 -48
-101 -45 -365 -178 -354 -178 5 0 -16 -13 -46 -28 -54 -27 -230 -132 -240
-143 -3 -3 -23 -16 -45 -29 -22 -13 -44 -28 -50 -32 -5 -5 -66 -49 -134 -99
-69 -50 -130 -97 -137 -103 -6 -6 -31 -27 -55 -46 -51 -41 -132 -115 -205
-186 -29 -29 -55 -49 -58 -46 -3 3 -6 0 -6 -7 0 -6 -17 -29 -37 -49 -21 -21
-63 -66 -93 -101 -30 -35 -63 -72 -72 -82 -10 -10 -18 -23 -18 -29 0 -5 -3
-10 -8 -10 -9 0 -113 -138 -110 -146 2 -3 -5 -10 -14 -15 -10 -6 -18 -16 -18
-24 0 -7 -4 -15 -8 -17 -5 -1 -25 -30 -46 -63 -21 -33 -46 -71 -56 -85 -9 -14
-36 -61 -60 -105 -23 -44 -51 -94 -61 -112 -10 -18 -15 -33 -11 -33 4 0 2 -4
-3 -8 -10 -6 -64 -114 -70 -137 -1 -5 -11 -31 -22 -56 -21 -47 -93 -242 -93
-252 0 -3 -5 -18 -11 -34 -7 -15 -13 -35 -14 -43 -2 -8 -15 -59 -30 -113 -14
-54 -28 -108 -31 -120 -32 -163 -49 -265 -60 -362 -3 -33 -9 -69 -11 -80 -3
-11 -6 -141 -8 -290 -3 -244 0 -305 20 -455 13 -96 12 -104 -27 -168 -21 -34
-38 -65 -38 -68 0 -3 -9 -17 -20 -31 -11 -14 -17 -29 -14 -34 3 -5 1 -9 -4 -9
-8 0 -36 -50 -32 -59 1 -2 -3 -7 -8 -10 -11 -7 -182 -347 -182 -361 0 -6 68
-10 173 -10 l172 0 69 133 c38 72 77 143 86 157 10 14 21 35 24 48 4 12 12 22
17 22 5 0 9 7 9 16 0 17 5 17 190 -2 188 -19 549 -25 700 -11 153 15 195 21
335 48 61 12 119 22 131 23 11 1 24 5 30 8 5 3 36 13 69 23 33 9 65 17 70 19
6 1 30 8 55 15 25 7 47 12 49 11 2 -1 7 2 10 7 6 10 95 43 119 45 6 1 12 5 12
10 0 4 9 8 20 8 11 0 20 5 20 11 0 5 4 8 9 5 4 -3 17 1 27 9 10 8 27 15 37 15
9 0 17 5 17 10 0 6 6 10 13 10 17 0 238 126 304 174 28 20 55 36 61 36 5 0 12
7 16 15 3 8 12 15 21 15 8 0 15 4 15 8 0 5 20 23 43 40 132 95 351 316 496
502 28 36 57 72 63 80 7 8 11 16 10 19 -2 2 3 8 12 13 9 5 16 14 16 20 0 9 15
30 61 86 5 6 7 12 4 12 -3 0 5 15 18 33 78 103 77 193 -3 261 -18 14 -49 29
-71 32 -33 6 -77 34 -53 34 5 0 5 4 -1 8 -5 4 -24 34 -41 67 -17 33 -50 95
-73 138 -41 77 -44 97 -15 97 8 0 22 4 32 9 50 24 307 131 316 131 3 0 35 14
71 30 36 17 69 30 73 30 4 0 18 6 32 13 14 7 49 22 79 33 81 29 115 65 146
159 15 44 28 86 30 95 2 8 8 27 14 43 6 15 8 27 5 27 -4 0 -2 6 4 13 6 6 10
14 10 17 0 13 24 97 32 113 7 12 7 17 -2 17 -9 0 -10 3 -2 8 12 7 20 34 30 98
3 21 8 43 12 48 3 5 6 19 8 30 5 33 44 209 51 226 3 8 7 31 8 50 2 19 6 46 9
60 5 23 16 83 22 125 1 11 3 20 4 20 1 0 3 14 4 30 2 17 9 64 15 105 6 41 13
93 16 115 3 22 7 51 9 65 3 14 7 53 10 87 3 35 8 87 11 115 5 59 13 153 21
273 11 154 10 405 -2 450 -26 106 -132 153 -231 104z"/>
</g>
</svg>
